<svg xmlns="http://www.w3.org/2000/svg" data-name="Layer 1" viewBox="0 0 512 512"><g data-name="&lt;Group&gt;"><path fill="#ed664c" d="M353.47,397.56a166.142,166.142,0,0,1-92.56,28.01h-9.82a166.785,166.785,0,1,1,0-333.57h9.82A166.807,166.807,0,0,1,378.72,376.87,167.843,167.843,0,0,1,353.47,397.56Zm25.84-138.78A119.747,119.747,0,0,0,259.52,139h-7.04a119.785,119.785,0,1,0,0,239.57h7.04A119.753,119.753,0,0,0,379.31,258.78Z"/><path fill="#fdc75b" d="M353.47 397.56V456a30 30 0 0 1-30 30H188.53a30 30 0 0 1-30-30V397.58a165.906 165.906 0 0 0 92.56 27.99h9.82A166.142 166.142 0 0 0 353.47 397.56zM353.47 56v63.1l-.41.61A165.937 165.937 0 0 0 260.91 92h-9.82a166.115 166.115 0 0 0-92.14 27.73l-.42-.63V56a30 30 0 0 1 30-30H323.47A30 30 0 0 1 353.47 56zM259.52 139a119.785 119.785 0 1 1 0 239.57h-7.04a119.785 119.785 0 1 1 0-239.57z"/><path d="M259.52,129h-7.04a129.785,129.785,0,1,0,0,259.569h7.04a129.752,129.752,0,0,0,129.79-129.79C389.31,187.219,331.086,129,259.52,129Zm77.559,207.509A109.13,109.13,0,0,1,259.52,368.57h-7.04a109.785,109.785,0,1,1,0-219.57h7.04a109.8,109.8,0,0,1,77.559,187.509Z"/><path d="M303.91,254.35H263.22V196.38a10,10,0,0,0-20,0v67.97a10,10,0,0,0,10,10h50.69a10,10,0,0,0,0-20Z"/><path d="M363.47,114.744V56a40.045,40.045,0,0,0-40-40H188.53a40.045,40.045,0,0,0-40,40v58.778a177.937,177.937,0,0,0-22.312,18.841A176.871,176.871,0,0,0,148.53,402.824V456a40.045,40.045,0,0,0,40,40H323.47a40.045,40.045,0,0,0,40-40V402.793a178.157,178.157,0,0,0,22.312-18.842A176.873,176.873,0,0,0,363.47,114.744ZM188.53,36H323.47a20.023,20.023,0,0,1,20,20v46.4A176.2,176.2,0,0,0,260.91,82h-9.82a176.169,176.169,0,0,0-82.56,20.425V56A20.023,20.023,0,0,1,188.53,36ZM323.47,476H188.53a20.023,20.023,0,0,1-20-20V415.169a176.124,176.124,0,0,0,82.56,20.4h9.82a176.152,176.152,0,0,0,82.56-20.426V456A20.023,20.023,0,0,1,323.47,476Zm48.189-106.21a158.246,158.246,0,0,1-23.746,19.457,156.139,156.139,0,0,1-87,26.323h-9.82A156.807,156.807,0,0,1,140.344,147.78a157.722,157.722,0,0,1,24.138-19.718A156.116,156.116,0,0,1,251.09,102h9.82A156.807,156.807,0,0,1,371.659,369.79Z"/></g></svg>